<svg width="336" height="316" viewBox="0 0 336 316" fill="none" xmlns="http://www.w3.org/2000/svg">
<path d="M299.198 96.6125C293.323 143.459 252.283 190.227 207.148 220.346C90.5078 298.814 -22.2528 165.663 6.19005 117.841C27.5395 69.336 94.1366 82.6589 122.467 63.5904C281.694 -44.3405 304.719 57.4042 299.198 96.6125Z" fill="#F37A20"/>
<path opacity="0.9" d="M299.198 96.6125C293.323 143.459 252.283 190.227 207.148 220.346C90.5078 298.814 -22.2528 165.663 6.19005 117.841C27.5395 69.336 94.1366 82.6589 122.467 63.5904C281.694 -44.3405 304.719 57.4042 299.198 96.6125Z" fill="white"/>
<path d="M168 315.412C260.519 315.412 335.521 311.033 335.521 305.631C335.521 300.23 260.519 295.851 168 295.851C75.4807 295.851 0.479004 300.23 0.479004 305.631C0.479004 311.033 75.4807 315.412 168 315.412Z" fill="#F5F5F5"/>
<path d="M167.965 257.947H45.2774L38.5641 60.6355H161.252L167.965 257.947Z" fill="#F37A20"/>
<path d="M174.091 251.821H51.4031L44.6812 54.5097H167.369L174.091 251.821Z" fill="#F37A20"/>
<path opacity="0.3" d="M174.091 251.821H51.4031L44.6812 54.5097H167.369L174.091 251.821Z" fill="white"/>
<path d="M132.984 135.703C146.121 122.34 145.562 100.489 131.736 86.898C117.91 73.3066 96.053 73.1216 82.9166 86.4846C69.7801 99.8477 70.339 121.699 84.1648 135.29C97.9907 148.881 119.848 149.066 132.984 135.703Z" fill="#F37A20"/>
<path d="M136.438 111.102C136.615 115.803 135.589 120.472 133.457 124.667C131.157 129.187 127.642 132.976 123.308 135.61C118.974 138.244 113.991 139.619 108.92 139.579C103.729 139.551 98.6365 138.159 94.1538 135.541C89.6711 132.924 85.9555 129.173 83.3798 124.667C80.9782 120.537 79.6365 115.876 79.4745 111.102C79.3151 107.4 79.9101 103.704 81.2233 100.239C82.5364 96.7734 84.5404 93.6114 87.1134 90.9447C89.6863 88.278 92.7746 86.1622 96.1906 84.7259C99.6065 83.2897 103.279 82.5629 106.984 82.5897C114.618 82.6437 121.937 85.6363 127.422 90.9459C132.907 96.2555 136.136 103.474 136.438 111.102Z" fill="white"/>
<path opacity="0.6" d="M133.44 124.667C131.139 129.187 127.625 132.976 123.291 135.61C118.956 138.244 113.974 139.619 108.902 139.579C103.711 139.551 98.6192 138.159 94.1365 135.541C89.6537 132.924 85.9381 129.173 83.3624 124.667C90.6694 119.685 99.3157 117.037 108.159 117.072C117.145 117.091 125.931 119.731 133.44 124.667Z" fill="#F37A20"/>
<path opacity="0.6" d="M116.827 110.391C121.657 105.478 121.452 97.4428 116.368 92.4451C111.284 87.4474 103.247 87.3794 98.4165 92.2931C93.5861 97.2069 93.7916 105.242 98.8755 110.239C103.959 115.237 111.996 115.305 116.827 110.391Z" fill="#F37A20"/>
<path d="M149.441 180.369H71.1801L70.6531 164.817H148.914L149.441 180.369Z" fill="white"/>
<path d="M150.392 208.163H72.1219L71.5948 192.611H149.865L150.392 208.163Z" fill="white"/>
<path d="M120.186 194.754L101.325 197.346C101.145 197.367 100.971 197.424 100.815 197.515C100.658 197.606 100.522 197.728 100.415 197.874C100.308 198.021 100.232 198.187 100.192 198.364C100.153 198.541 100.15 198.724 100.185 198.901L102.664 211.542C102.745 211.913 102.962 212.24 103.273 212.459C103.583 212.678 103.964 212.773 104.34 212.725L123.202 210.133C123.381 210.111 123.554 210.051 123.71 209.959C123.865 209.867 124.001 209.744 124.107 209.597C124.213 209.45 124.288 209.284 124.327 209.107C124.366 208.93 124.368 208.747 124.333 208.57L121.862 195.929C121.781 195.559 121.564 195.233 121.253 195.015C120.943 194.797 120.562 194.704 120.186 194.754ZM114.769 207.559L111.313 208.017L110.976 203.939C110.62 203.785 110.306 203.547 110.061 203.246C109.816 202.946 109.647 202.59 109.568 202.211C109.504 201.916 109.503 201.612 109.565 201.317C109.626 201.023 109.749 200.744 109.925 200.5C110.101 200.256 110.326 200.051 110.586 199.899C110.846 199.747 111.135 199.652 111.434 199.619C112.048 199.54 112.669 199.694 113.174 200.05C113.68 200.407 114.033 200.941 114.164 201.545C114.239 201.91 114.216 202.289 114.098 202.642C113.979 202.996 113.77 203.312 113.49 203.558L114.769 207.559Z" fill="#F37A20"/>
<path d="M118.32 194.072C117.986 194.114 117.649 194.03 117.374 193.837C117.099 193.644 116.907 193.354 116.834 193.026L116.592 191.791C116.247 190.105 115.302 188.601 113.932 187.559C112.562 186.516 110.861 186.006 109.144 186.123C108.278 186.172 107.432 186.407 106.665 186.813C105.897 187.218 105.226 187.784 104.696 188.471C104.167 189.159 103.791 189.953 103.596 190.798C103.4 191.644 103.389 192.521 103.563 193.372L103.839 194.797C103.871 194.955 103.87 195.118 103.836 195.276C103.801 195.433 103.735 195.582 103.639 195.712C103.544 195.842 103.423 195.951 103.283 196.032C103.144 196.112 102.989 196.163 102.828 196.18C102.494 196.226 102.155 196.144 101.879 195.95C101.603 195.756 101.411 195.465 101.342 195.134L101.109 193.933C100.872 192.811 100.864 191.652 101.086 190.527C101.308 189.401 101.755 188.332 102.401 187.384C103.046 186.436 103.877 185.628 104.843 185.009C105.809 184.389 106.89 183.972 108.021 183.781C110.474 183.369 112.991 183.918 115.05 185.313C117.11 186.707 118.553 188.842 119.08 191.272L119.357 192.689C119.389 192.849 119.387 193.014 119.351 193.173C119.315 193.332 119.246 193.482 119.148 193.613C119.05 193.743 118.926 193.852 118.783 193.931C118.64 194.01 118.482 194.058 118.32 194.072Z" fill="#F37A20"/>
<path d="M137.475 229.945H86.5247L86.1877 219.819H137.129L137.475 229.945Z" fill="#F37A20"/>
<path d="M112.894 172.593C112.909 172.962 112.849 173.331 112.718 173.676C112.586 174.022 112.386 174.337 112.129 174.603C111.872 174.868 111.564 175.079 111.223 175.222C110.882 175.365 110.516 175.438 110.146 175.435C109.385 175.429 108.654 175.131 108.106 174.602C107.558 174.073 107.233 173.354 107.2 172.593C107.185 172.223 107.245 171.855 107.376 171.509C107.508 171.164 107.708 170.849 107.965 170.583C108.222 170.317 108.53 170.106 108.871 169.963C109.212 169.82 109.578 169.747 109.948 169.75C110.71 169.754 111.442 170.051 111.991 170.581C112.539 171.11 112.863 171.831 112.894 172.593Z" fill="#263238"/>
<path d="M100.608 172.593C100.624 172.962 100.565 173.331 100.434 173.677C100.303 174.023 100.103 174.339 99.8459 174.605C99.5888 174.871 99.2801 175.082 98.9387 175.225C98.5973 175.367 98.2304 175.439 97.8605 175.435C97.0995 175.429 96.37 175.131 95.8231 174.601C95.2762 174.072 94.9539 173.353 94.9228 172.593C94.9076 172.223 94.9676 171.855 95.099 171.509C95.2305 171.164 95.4308 170.849 95.6877 170.583C95.9446 170.317 96.2528 170.106 96.5936 169.963C96.9344 169.82 97.3007 169.747 97.6704 169.75C98.432 169.754 99.1627 170.052 99.71 170.581C100.257 171.111 100.579 171.832 100.608 172.593Z" fill="#263238"/>
<path d="M88.3996 172.593C88.4148 172.962 88.3549 173.331 88.2234 173.676C88.0919 174.022 87.8917 174.337 87.6348 174.603C87.3779 174.868 87.0697 175.079 86.7289 175.222C86.388 175.365 86.0217 175.438 85.6521 175.435C84.8905 175.431 84.1598 175.133 83.6124 174.604C83.0651 174.074 82.7434 173.354 82.7145 172.593C82.6993 172.223 82.7592 171.855 82.8907 171.509C83.0221 171.164 83.2224 170.849 83.4793 170.583C83.7362 170.317 84.0444 170.106 84.3852 169.963C84.726 169.82 85.0924 169.747 85.462 169.75C86.2236 169.754 86.9543 170.052 87.5016 170.581C88.049 171.111 88.3706 171.832 88.3996 172.593Z" fill="#263238"/>
<path d="M125.137 172.593C125.152 172.962 125.092 173.331 124.961 173.676C124.829 174.022 124.629 174.337 124.372 174.602C124.115 174.868 123.807 175.079 123.466 175.222C123.125 175.365 122.759 175.438 122.389 175.435C121.628 175.431 120.897 175.133 120.35 174.604C119.802 174.074 119.481 173.354 119.452 172.593C119.439 172.224 119.501 171.857 119.634 171.514C119.767 171.17 119.969 170.857 120.226 170.594C120.484 170.331 120.793 170.122 121.133 169.982C121.474 169.841 121.839 169.771 122.208 169.776C122.964 169.782 123.689 170.077 124.233 170.601C124.778 171.125 125.102 171.838 125.137 172.593Z" fill="#263238"/>
<path d="M137.38 172.593C137.396 172.962 137.337 173.331 137.206 173.677C137.075 174.023 136.875 174.339 136.618 174.605C136.361 174.871 136.052 175.082 135.711 175.225C135.369 175.367 135.002 175.439 134.632 175.435C133.871 175.429 133.142 175.131 132.595 174.601C132.048 174.072 131.726 173.353 131.695 172.593C131.679 172.223 131.739 171.855 131.871 171.509C132.002 171.164 132.203 170.849 132.46 170.583C132.716 170.317 133.025 170.106 133.365 169.963C133.706 169.82 134.073 169.747 134.442 169.75C135.204 169.754 135.935 170.052 136.482 170.581C137.029 171.111 137.351 171.832 137.38 172.593Z" fill="#263238"/>
<path d="M240.498 96.5779C241.647 98.4268 242.606 100.189 243.591 102.03C244.576 103.87 245.466 105.719 246.339 107.611C248.119 111.443 249.593 115.409 250.745 119.474C250.901 119.984 251.013 120.528 251.143 121.055L251.333 121.859L251.428 122.256L251.54 122.913C251.735 124.402 251.644 125.915 251.272 127.371C250.676 129.631 249.769 131.797 248.577 133.808C246.444 137.461 243.867 140.837 240.904 143.856L237.267 141.108C239.093 137.752 240.717 134.29 242.131 130.74C242.761 129.177 243.205 127.544 243.453 125.876C243.533 125.367 243.509 124.847 243.384 124.347L243.038 123.293C242.9 122.861 242.771 122.429 242.606 121.988C241.292 118.424 239.772 114.939 238.053 111.551C236.325 108.095 234.467 104.639 232.61 101.339L240.498 96.5779Z" fill="#FF8B7B"/>
<path d="M238.191 139.908L234.217 142.007L238.779 147.347C238.779 147.347 241.63 145.42 241.76 142.482L238.191 139.908Z" fill="#FF8B7B"/>
<path d="M228.886 145.299L233.768 149.178L238.779 147.347L234.217 142.007L228.886 145.299Z" fill="#FF8B7B"/>
<path d="M212.194 68.3078C212.099 68.7917 211.762 69.1286 211.451 69.0682C211.14 69.0077 210.958 68.5584 211.053 68.0832C211.148 67.608 211.485 67.2192 211.805 67.3229C212.125 67.4266 212.289 67.824 212.194 68.3078Z" fill="#263238"/>
<path d="M211.805 69.1373C210.935 70.4906 209.882 71.7175 208.677 72.7834C208.962 73.0783 209.307 73.3082 209.689 73.4574C210.07 73.6065 210.48 73.6713 210.889 73.6474L211.805 69.1373Z" fill="#FF5652"/>
<path d="M210.25 86.0889V80.4211L217.749 81.2851C217.749 81.2851 217.628 86.158 213.429 87.5923L210.25 86.0889Z" fill="#FF8B7B"/>
<path d="M212.41 76.343L217.689 77.8637L217.784 81.3283L210.284 80.4211L212.41 76.343Z" fill="#FF8B7B"/>
<path opacity="0.2" d="M217.689 77.8637L212.41 76.343L211.381 78.3129C211.438 79.8651 211.923 81.3715 212.783 82.6648C213.643 83.9581 214.845 84.9878 216.254 85.6396C217.161 84.3727 217.692 82.8751 217.784 81.3197L217.689 77.8637Z" fill="black"/>
<path d="M214.492 66.0009C214.547 65.9994 214.601 65.9823 214.647 65.9516C214.693 65.9208 214.73 65.8776 214.752 65.827C214.775 65.7764 214.783 65.7205 214.775 65.6657C214.767 65.6108 214.744 65.5593 214.708 65.5171C214.404 65.1744 214.023 64.9093 213.596 64.7439C213.169 64.5786 212.709 64.5178 212.254 64.5667C212.18 64.5794 212.113 64.6211 212.07 64.6826C212.026 64.7442 212.008 64.8206 212.021 64.895C212.034 64.97 212.075 65.0371 212.136 65.0822C212.197 65.1274 212.274 65.147 212.349 65.1369C212.71 65.1016 213.073 65.1529 213.41 65.2866C213.747 65.4204 214.047 65.6327 214.284 65.9059C214.311 65.9348 214.343 65.958 214.379 65.9744C214.414 65.9907 214.453 65.9997 214.492 66.0009Z" fill="#263238"/>
<path d="M225.534 77.0515C224.67 81.5011 224.134 87.6614 227.262 90.625C227.262 90.625 226.052 95.135 217.758 95.135C208.677 95.135 213.395 91.1779 213.395 91.1779C217.17 90.0029 217.136 85.7088 216.272 82.2528L225.534 77.0515Z" fill="#FF8B7B"/>
<path d="M228.947 93.5971C229.759 92.4566 229.724 88.8365 228.86 88.1971C227.469 87.169 221.499 86.927 213.472 88.776C214.336 92.2838 212.479 94.1155 212.479 94.1155L228.947 93.5971Z" fill="#F37A20"/>
<path d="M255.955 298.719C255.709 298.806 255.447 298.843 255.186 298.828C254.925 298.813 254.67 298.747 254.435 298.633C254.345 298.55 254.284 298.441 254.259 298.322C254.235 298.203 254.248 298.079 254.296 297.968C254.323 297.874 254.371 297.788 254.435 297.715C254.499 297.642 254.579 297.583 254.668 297.544C255.489 297.147 257.372 297.916 257.459 297.95C257.484 297.961 257.506 297.979 257.522 298.002C257.537 298.025 257.545 298.052 257.545 298.08C257.545 298.108 257.537 298.135 257.524 298.159C257.51 298.183 257.491 298.204 257.467 298.218C256.98 298.432 256.474 298.6 255.955 298.719ZM254.962 297.743C254.905 297.756 254.849 297.777 254.797 297.803C254.743 297.823 254.695 297.855 254.656 297.897C254.617 297.939 254.588 297.99 254.573 298.045C254.495 298.305 254.573 298.391 254.625 298.417C254.953 298.693 256.163 298.417 257.018 298.097C256.367 297.828 255.665 297.707 254.962 297.743Z" fill="#F37A20"/>
<path d="M257.433 298.227H257.364C256.672 298.028 255.204 296.983 255.186 296.3C255.186 296.192 255.222 296.086 255.29 296.001C255.357 295.916 255.452 295.857 255.558 295.834C255.66 295.795 255.77 295.78 255.879 295.789C255.988 295.798 256.094 295.831 256.189 295.885C257.001 296.3 257.519 297.976 257.536 298.054C257.548 298.075 257.555 298.099 257.555 298.123C257.555 298.147 257.548 298.171 257.536 298.192C257.523 298.206 257.507 298.216 257.489 298.222C257.471 298.228 257.451 298.23 257.433 298.227ZM255.705 296.076H255.636C255.463 296.136 255.463 296.222 255.463 296.266C255.463 296.672 256.448 297.492 257.191 297.821C257.009 297.337 256.612 296.378 256.085 296.093C255.968 296.04 255.835 296.033 255.713 296.076H255.705Z" fill="#F37A20"/>
<path d="M211.079 299.739C210.301 299.739 209.55 299.627 209.299 299.281C209.234 299.189 209.198 299.079 209.198 298.966C209.198 298.853 209.234 298.742 209.299 298.65C209.348 298.566 209.415 298.492 209.493 298.434C209.572 298.376 209.662 298.335 209.757 298.313C210.768 298.037 212.893 299.246 212.98 299.298C213.006 299.311 213.028 299.333 213.04 299.359C213.053 299.386 213.056 299.416 213.049 299.445C213.046 299.475 213.033 299.502 213.013 299.524C212.993 299.546 212.966 299.561 212.937 299.566C212.324 299.678 211.702 299.736 211.079 299.739ZM210.12 298.555C210.028 298.54 209.935 298.54 209.843 298.555C209.785 298.567 209.729 298.591 209.68 298.625C209.631 298.659 209.59 298.703 209.558 298.754C209.455 298.935 209.498 299.022 209.558 299.074C209.843 299.471 211.373 299.48 212.505 299.315C211.766 298.912 210.956 298.654 210.12 298.555Z" fill="#F37A20"/>
<path d="M212.928 299.566H212.867C212.133 299.238 210.682 297.924 210.794 297.233C210.794 297.069 210.932 296.87 211.33 296.836C211.472 296.819 211.616 296.832 211.752 296.874C211.889 296.915 212.016 296.985 212.124 297.078C212.678 297.74 213.01 298.559 213.075 299.419C213.075 299.444 213.069 299.468 213.059 299.491C213.048 299.513 213.033 299.533 213.014 299.549C212.988 299.562 212.958 299.568 212.928 299.566ZM211.442 297.104H211.355C211.096 297.104 211.079 297.225 211.079 297.259C211.01 297.674 211.995 298.711 212.747 299.16C212.681 298.467 212.4 297.811 211.943 297.285C211.801 297.164 211.62 297.1 211.433 297.104H211.442Z" fill="#F37A20"/>
<path d="M219.598 299.428H213.524L212.919 285.353H218.993L219.598 299.428Z" fill="#FF8B7B"/>
<path d="M264.206 296.611L258.271 297.899L252.301 284.792L258.245 283.504L264.206 296.611Z" fill="#FF8B7B"/>
<path d="M257.692 297.302L264.371 295.86C264.487 295.835 264.609 295.85 264.716 295.904C264.822 295.957 264.908 296.045 264.958 296.153L267.274 301.182C267.335 301.303 267.367 301.438 267.367 301.575C267.366 301.711 267.334 301.845 267.271 301.967C267.209 302.088 267.119 302.193 267.008 302.273C266.897 302.353 266.769 302.405 266.634 302.426C264.301 302.884 263.135 302.996 260.206 303.627C258.4 304.024 254.322 305.018 251.825 305.554C249.328 306.089 248.473 303.696 249.449 303.255C253.812 301.259 255.627 299.506 256.811 297.873C257.025 297.581 257.338 297.378 257.692 297.302Z" fill="#263238"/>
<path d="M213.567 298.719H220.203C220.323 298.72 220.44 298.761 220.534 298.837C220.628 298.912 220.694 299.017 220.721 299.134L221.922 304.534C221.957 304.665 221.962 304.802 221.934 304.934C221.907 305.066 221.849 305.19 221.765 305.296C221.681 305.402 221.573 305.487 221.45 305.544C221.328 305.6 221.193 305.627 221.058 305.623C218.665 305.58 215.209 305.441 212.202 305.441C208.677 305.441 205.645 305.631 201.515 305.631C199.018 305.631 198.326 303.108 199.372 302.875C204.124 301.838 208.012 301.726 212.116 299.195C212.547 298.906 213.049 298.741 213.567 298.719Z" fill="#263238"/>
<path d="M238.131 92.016C243.825 93.3206 248.499 107.862 248.499 107.862L237.12 116.562C234.166 113.404 232.083 109.534 231.072 105.33C229.059 97.7097 232.308 90.6681 238.131 92.016Z" fill="#236CD9"/>
<path opacity="0.4" d="M238.131 92.016C243.825 93.3206 248.499 107.862 248.499 107.862L237.12 116.562C234.166 113.404 232.083 109.534 231.072 105.33C229.059 97.7097 232.308 90.6681 238.131 92.016Z" fill="black"/>
<path d="M208.176 109.356C206.759 110.886 205.342 112.251 203.856 113.676C203.122 114.368 202.379 115.059 201.618 115.724L200.469 116.735L200.184 116.986L199.692 117.383C199.185 117.788 198.623 118.12 198.024 118.368C197.357 118.651 196.64 118.798 195.916 118.8C195.297 118.803 194.682 118.694 194.101 118.48C193.457 118.235 192.869 117.862 192.373 117.383C191.741 116.764 191.276 115.994 191.026 115.145C190.894 114.727 190.81 114.295 190.775 113.858C190.73 113.346 190.73 112.832 190.775 112.32C190.818 111.905 190.87 111.542 190.939 111.205C191.176 110.027 191.511 108.871 191.941 107.749C192.33 106.683 192.777 105.639 193.281 104.622C193.834 103.524 194.361 102.721 194.888 101.805C197.028 98.2983 199.471 94.9852 202.188 91.9036C204.878 88.8403 207.843 86.0292 211.044 83.5056L214.224 86.7801C211.995 89.7696 209.8 92.975 207.77 96.1286C205.749 99.2643 203.903 102.509 202.24 105.849C201.869 106.661 201.376 107.577 201.143 108.233C200.834 108.996 200.566 109.775 200.34 110.566C200.122 111.279 199.957 112.006 199.847 112.743C199.841 112.858 199.841 112.974 199.847 113.089C199.847 113.158 199.847 113.193 199.847 113.011C199.833 112.817 199.795 112.626 199.735 112.441C199.548 111.828 199.206 111.275 198.741 110.834C198.328 110.454 197.843 110.161 197.316 109.97C196.852 109.794 196.36 109.703 195.864 109.702C195.387 109.696 194.914 109.787 194.473 109.97C194.324 110.031 194.179 110.103 194.041 110.186L194.369 109.883L195.415 108.933L197.48 106.998C198.845 105.71 200.219 104.337 201.515 103.058L208.176 109.356Z" fill="#FF8B7B"/>
<path opacity="0.2" d="M233.249 102.695C236.342 105.754 237.353 111.335 237.569 116.173L237.068 116.562C234.115 113.404 232.031 109.534 231.02 105.33C230.908 104.881 230.804 104.466 230.726 103.974L233.249 102.695Z" fill="black"/>
<path d="M202.137 98.064C200.893 104.63 200.115 118.117 203.718 144.815H236.256C236.481 139.83 233.344 115.482 238.157 91.9728C234.561 91.2823 230.925 90.8235 227.27 90.599C222.666 90.335 218.051 90.335 213.446 90.599C211.926 90.7373 210.422 90.9619 209.126 91.1952C207.403 91.4976 205.812 92.3162 204.564 93.5427C203.315 94.7693 202.469 96.3459 202.137 98.064Z" fill="#236CD9"/>
<path opacity="0.4" d="M202.137 98.064C200.893 104.63 200.115 118.117 203.718 144.815H236.256C236.481 139.83 233.344 115.482 238.157 91.9728C234.561 91.2823 230.925 90.8235 227.27 90.599C222.666 90.335 218.051 90.335 213.446 90.599C211.926 90.7373 210.422 90.9619 209.126 91.1952C207.403 91.4976 205.812 92.3162 204.564 93.5427C203.315 94.7693 202.469 96.3459 202.137 98.064Z" fill="black"/>
<path opacity="0.2" d="M207.113 107.801L201.238 106.393C201.057 109.953 201.039 114.359 201.299 119.811C204.003 116.735 207.459 111.931 207.113 107.801Z" fill="black"/>
<path opacity="0.2" d="M212.919 285.353L213.23 292.611H219.313L219.002 285.353H212.919Z" fill="black"/>
<path opacity="0.2" d="M258.245 283.504L252.301 284.792L255.376 291.548L261.321 290.261L258.245 283.504Z" fill="black"/>
<path d="M228.42 70.5542C226.864 76.3776 226.242 79.8681 222.648 82.2873C217.248 85.968 210.509 81.7517 210.336 75.6C210.146 70.0445 212.729 61.4476 218.976 60.2726C220.349 60.015 221.764 60.1112 223.09 60.5521C224.415 60.993 225.606 61.7641 226.551 62.7927C227.496 63.8214 228.163 65.0737 228.49 66.4316C228.817 67.7895 228.793 69.2083 228.42 70.5542Z" fill="#FF8B7B"/>
<path d="M214.786 70.7702C214.492 69.9926 213.153 63.9705 214.414 62.4067C215.676 60.8428 230.061 61.9747 232.187 64.0656C235.72 67.5216 233.267 70.632 229.404 74.6323C226.501 77.639 226.389 81.0259 224.92 81.5443C222.328 82.4083 218.371 81.5961 217.576 78.8573C216.781 76.1184 214.786 70.7702 214.786 70.7702Z" fill="#263238"/>
<path d="M230.441 57.2141C225.361 55.0541 215.831 57.4473 210.682 56.2032C210.616 58.1179 211.246 59.9917 212.454 61.4783C213.663 62.9649 215.369 63.9637 217.257 64.2902C221.528 65.1043 225.868 65.5065 230.217 65.4912C235.867 65.232 234.761 59.0544 230.441 57.2141Z" fill="#263238"/>
<path d="M231.236 64.247C233.092 64.4296 234.961 64.0726 236.619 63.2189C237.569 65.5171 232.342 66.1478 231.236 64.247Z" fill="#263238"/>
<path d="M217.55 71.0122C217.434 72.5105 216.826 73.9287 215.822 75.047C214.492 76.5072 213.109 75.5914 212.876 73.8202C212.669 72.2131 213.101 69.5002 214.725 68.7226C216.349 67.945 217.663 69.2064 217.55 71.0122Z" fill="#FF8B7B"/>
<path d="M215.252 144.841C215.252 144.841 222.164 191.281 225.94 208.682C230.078 227.733 252.318 290.762 252.318 290.762L263.196 288.403C263.196 288.403 247.644 237.03 244.188 210.393C241.509 189.933 236.247 144.824 236.247 144.824L215.252 144.841Z" fill="#5EC401"/>
<path d="M249.708 287.142C249.665 287.142 251.739 291.082 251.739 291.082L263.973 288.429L262.945 284.748L249.708 287.142Z" fill="#263238"/>
<path opacity="0.3" d="M219.615 161.387C227.59 162.95 226.743 192.689 225.784 207.991C223.486 197.173 220.116 176.368 217.818 161.603C218.375 161.328 219.009 161.251 219.615 161.387Z" fill="black"/>
<path d="M203.718 144.841C203.718 144.841 202.854 190.279 203.545 208.777C204.236 228.053 210.967 291.168 210.967 291.168H221.266C221.266 291.168 221.637 229.176 222.13 210.246C222.631 189.613 225.119 144.806 225.119 144.806L203.718 144.841Z" fill="#5EC401"/>
<path d="M208.988 287.107C208.936 287.107 209.567 291.375 209.567 291.375H222.086L222.432 287.565L208.988 287.107Z" fill="#263238"/>
<path d="M214.872 100.086C217.784 107.939 200.668 117.193 200.668 117.193L193.255 107.689C193.255 107.689 198.24 97.8221 204.288 93.3811C211.762 87.9033 212.652 94.1069 214.872 100.086Z" fill="#236CD9"/>
<path opacity="0.4" d="M214.872 100.086C217.784 107.939 200.668 117.193 200.668 117.193L193.255 107.689C193.255 107.689 198.24 97.8221 204.288 93.3811C211.762 87.9033 212.652 94.1069 214.872 100.086Z" fill="black"/>
<path d="M281.936 40.4611C299.157 40.4611 313.117 31.5641 313.117 20.5891C313.117 9.6141 299.157 0.717102 281.936 0.717102C264.714 0.717102 250.754 9.6141 250.754 20.5891C250.754 31.5641 264.714 40.4611 281.936 40.4611Z" fill="#F37A20"/>
<path d="M270.686 30.5942C268.632 30.5876 266.646 29.8572 265.077 28.5315C263.508 27.2058 262.456 25.3695 262.107 23.3453C261.763 21.1527 262.258 18.911 263.492 17.0666C264.727 15.2222 266.61 13.9103 268.768 13.392C270.539 12.9839 272.393 13.1412 274.07 13.8417C275.747 14.5422 277.162 15.7507 278.117 17.2973L298.136 13.1673C298.905 12.9988 299.709 13.1268 300.389 13.5256C301.068 13.9244 301.571 14.5648 301.799 15.3187C301.904 15.7151 301.927 16.1287 301.866 16.5342C301.806 16.9397 301.663 17.3286 301.447 17.6772C301.231 18.0257 300.946 18.3265 300.61 18.5613C300.274 18.7961 299.894 18.9598 299.492 19.0425L298.974 19.1462C298.897 19.16 298.824 19.1914 298.761 19.2378C298.698 19.2843 298.647 19.3446 298.611 19.4141C298.579 19.4846 298.562 19.5612 298.562 19.6387C298.562 19.7162 298.579 19.7928 298.611 19.8633L298.965 20.7792C299.084 21.076 299.095 21.405 298.997 21.7094C298.9 22.0138 298.699 22.2745 298.429 22.4467C298.217 22.5779 298.037 22.7559 297.904 22.967C297.771 23.1781 297.687 23.4168 297.66 23.6649C297.635 23.9498 297.52 24.2193 297.332 24.4349C297.145 24.6506 296.894 24.8015 296.615 24.8659L296.209 24.9523C295.927 25.0043 295.637 24.9654 295.379 24.8411C295.121 24.7168 294.909 24.5137 294.775 24.2611C294.595 23.9597 294.326 23.7219 294.005 23.5806C293.684 23.4394 293.327 23.4018 292.984 23.4731C292.641 23.5444 292.328 23.7211 292.09 23.9785C291.852 24.2359 291.7 24.5613 291.656 24.9091C291.632 25.1921 291.518 25.4601 291.332 25.6745C291.145 25.8888 290.896 26.0383 290.619 26.1014L290.213 26.1878C289.931 26.2385 289.641 26.1989 289.384 26.0748C289.126 25.9506 288.914 25.7483 288.778 25.4966C288.649 25.2823 288.475 25.0987 288.267 24.9585C288.06 24.8183 287.825 24.7248 287.577 24.6845C287.245 24.6445 286.939 24.4846 286.716 24.2348C286.494 23.9851 286.37 23.6626 286.368 23.328V22.343C286.364 22.266 286.344 22.1906 286.309 22.122C286.274 22.0534 286.224 21.9933 286.163 21.9457C286.103 21.8981 286.032 21.8642 285.957 21.8463C285.882 21.8284 285.804 21.8269 285.729 21.8419L279.344 23.1552C279.083 24.9241 278.284 26.5698 277.055 27.8684C275.826 29.167 274.227 30.0554 272.475 30.4128C271.886 30.5331 271.287 30.5939 270.686 30.5942ZM268.958 14.1782C266.999 14.636 265.285 15.8192 264.163 17.4897C263.041 19.1602 262.593 21.1938 262.91 23.1811C263.25 25.0299 264.24 26.6961 265.702 27.8783C267.164 29.0604 269 29.6804 270.879 29.6261C272.758 29.5718 274.556 28.8469 275.946 27.5823C277.337 26.3178 278.23 24.5972 278.462 22.7318V22.4208L285.504 20.9952C285.706 20.9463 285.916 20.943 286.12 20.9856C286.323 21.0282 286.514 21.1155 286.68 21.2412C286.845 21.367 286.981 21.528 287.076 21.7126C287.172 21.8972 287.225 22.1007 287.232 22.3085V23.2934C287.234 23.4107 287.276 23.5237 287.352 23.6134C287.427 23.7031 287.531 23.764 287.647 23.7859C288.024 23.84 288.385 23.9794 288.701 24.1934C289.016 24.4075 289.279 24.6906 289.47 25.0214C289.515 25.1147 289.589 25.1914 289.68 25.2409C289.772 25.2904 289.876 25.3103 289.979 25.2979L290.377 25.2115C290.478 25.1856 290.567 25.1279 290.633 25.0469C290.698 24.966 290.736 24.8662 290.74 24.7622C290.794 24.2244 291.018 23.7178 291.38 23.3156C291.741 22.9134 292.221 22.6366 292.75 22.525C293.279 22.4134 293.829 22.473 294.322 22.695C294.815 22.917 295.225 23.2899 295.492 23.76C295.536 23.8525 295.608 23.9289 295.698 23.9785C295.788 24.0281 295.891 24.0483 295.993 24.0365L296.408 23.9501C296.507 23.9226 296.595 23.8642 296.658 23.7834C296.722 23.7026 296.758 23.6036 296.762 23.5008C296.805 23.1214 296.933 22.7569 297.139 22.4349C297.344 22.113 297.62 21.8422 297.945 21.6432C298.041 21.5745 298.11 21.476 298.143 21.3633C298.176 21.2506 298.17 21.1302 298.127 21.0211L297.773 20.1053C297.699 19.9164 297.668 19.7139 297.681 19.5118C297.695 19.3097 297.752 19.113 297.849 18.9352C297.946 18.7575 298.081 18.6031 298.244 18.4829C298.407 18.3626 298.594 18.2794 298.792 18.239L299.319 18.1267C299.604 18.0659 299.875 17.9482 300.113 17.7806C300.352 17.613 300.554 17.399 300.708 17.1513C300.862 16.9037 300.965 16.6276 301.01 16.3394C301.055 16.0512 301.041 15.757 300.969 15.4742C300.801 14.9305 300.433 14.4706 299.939 14.187C299.446 13.9033 298.863 13.8169 298.308 13.9449L277.728 18.2217L277.572 17.9539C276.745 16.4819 275.462 15.319 273.916 14.6409C272.369 13.9629 270.644 13.8065 269.001 14.1955L268.958 14.1782ZM270.686 27.3801C269.613 27.3921 268.559 27.0919 267.654 26.5161C266.582 25.8128 265.788 24.7595 265.406 23.5361C265.024 22.3126 265.079 20.9946 265.56 19.8067C266.041 18.6189 266.92 17.6347 268.046 17.022C269.171 16.4093 270.475 16.2061 271.734 16.4468C272.992 16.6876 274.129 17.3575 274.949 18.3424C275.769 19.3273 276.222 20.5661 276.231 21.8477C276.24 23.1294 275.804 24.3744 274.998 25.3707C274.192 26.3669 273.065 27.0527 271.809 27.311C271.442 27.3776 271.068 27.4065 270.695 27.3974L270.686 27.3801ZM270.686 17.1763C270.364 17.1781 270.043 17.2099 269.727 17.2713C269.125 17.3995 268.555 17.6451 268.048 17.9939C267.54 18.3427 267.107 18.7879 266.772 19.3042C266.437 19.8205 266.207 20.3977 266.095 21.0028C265.983 21.608 265.992 22.2293 266.12 22.8312C266.248 23.4331 266.494 24.0039 266.843 24.5109C267.191 25.0179 267.637 25.4513 268.153 25.7863C268.669 26.1212 269.246 26.3512 269.852 26.4631C270.457 26.575 271.078 26.5666 271.68 26.4384C272.583 26.2503 273.411 25.7989 274.059 25.1411C274.706 24.4832 275.144 23.6485 275.318 22.742C275.492 21.8355 275.393 20.8979 275.035 20.0474C274.676 19.1968 274.074 18.4714 273.304 17.9625C272.539 17.4538 271.639 17.186 270.721 17.1936L270.686 17.1763Z" fill="white"/>
<path opacity="0.6" d="M256.56 52.1164C262.219 52.1164 266.807 49.192 266.807 45.5846C266.807 41.9772 262.219 39.0528 256.56 39.0528C250.901 39.0528 246.313 41.9772 246.313 45.5846C246.313 49.192 250.901 52.1164 256.56 52.1164Z" fill="#F37A20"/>
<path opacity="0.3" d="M240.256 54.7949C242.58 54.7949 244.464 53.5957 244.464 52.1165C244.464 50.6372 242.58 49.4381 240.256 49.4381C237.932 49.4381 236.049 50.6372 236.049 52.1165C236.049 53.5957 237.932 54.7949 240.256 54.7949Z" fill="#F37A20"/>
</svg>
