<svg width="54" height="54" viewBox="0 0 54 54" fill="none" xmlns="http://www.w3.org/2000/svg">
<circle cx="27" cy="27" r="27" fill="#5EC401"/>
<path fill-rule="evenodd" clip-rule="evenodd" d="M25 27H19C18.45 27 18 26.55 18 26V18C18 17.45 18.45 17 19 17H25C25.55 17 26 17.45 26 18V26C26 26.55 25.55 27 25 27ZM34 27H30V33H34V27ZM19 35H25C25.55 35 26 34.55 26 34V30C26 29.45 25.55 29 25 29H19C18.45 29 18 29.45 18 30V34C18 34.55 18.45 35 19 35ZM24 33V31H20V33H24ZM29 35H35C35.55 35 36 34.55 36 34V26C36 25.45 35.55 25 35 25H29C28.45 25 28 25.45 28 26V34C28 34.55 28.45 35 29 35ZM24 25V19H20V25H24ZM28 18V22C28 22.55 28.45 23 29 23H35C35.55 23 36 22.55 36 22V18C36 17.45 35.55 17 35 17H29C28.45 17 28 17.45 28 18ZM34 21V19H30V21H34Z" fill="white"/>
</svg>
