<svg width="54" height="54" viewBox="0 0 54 54" fill="none" xmlns="http://www.w3.org/2000/svg">
<circle cx="27" cy="27" r="27" fill="#5EC401"/>
<path fill-rule="evenodd" clip-rule="evenodd" d="M26.1979 28.655V33.655C26.1979 34.205 25.7479 34.655 25.1979 34.655H21.1979C20.6479 34.655 20.1979 34.205 20.1979 33.655V26.655H18.4979C18.0379 26.655 17.8279 26.085 18.1679 25.785L26.5279 18.255C26.9079 17.915 27.4879 17.915 27.8679 18.255L36.2279 25.785C36.5779 26.085 36.3579 26.655 35.8979 26.655H34.1979V33.655C34.1979 34.205 33.7479 34.655 33.1979 34.655H29.1979C28.6479 34.655 28.1979 34.205 28.1979 33.655V28.655H26.1979ZM32.1979 25.0677C32.1979 24.9259 32.1377 24.7909 32.0323 24.696L27.5323 20.646C27.3422 20.4749 27.0535 20.4749 26.8634 20.646L22.3634 24.696C22.258 24.7909 22.1979 24.9259 22.1979 25.0677V32.155C22.1979 32.4311 22.4217 32.655 22.6979 32.655H23.6979C23.974 32.655 24.1979 32.4311 24.1979 32.155V26.655H30.1979V32.155C30.1979 32.4311 30.4217 32.655 30.6979 32.655H31.6979C31.974 32.655 32.1979 32.4311 32.1979 32.155V25.0677Z" fill="white"/>
</svg>
