<svg width="54" height="54" viewBox="0 0 54 54" fill="none" xmlns="http://www.w3.org/2000/svg">
<path d="M34.9796 34.5656C35.124 34.4055 35.1933 34.1919 35.1709 33.9779L35.1709 33.9779L33.678 19.7616L33.678 19.7616C33.6373 19.375 33.3114 19.0813 32.9225 19.0813H30.2917V18.6166C30.2917 16.5258 28.5908 14.825 26.5001 14.825C24.4092 14.825 22.7083 16.5258 22.7083 18.6166V19.0813H20.0775C19.6886 19.0813 19.3627 19.375 19.322 19.7616L19.322 19.7616L17.8291 33.9779L17.8291 33.9779C17.8067 34.192 17.8763 34.4055 18.02 34.5654L18.0202 34.5656C18.1643 34.7254 18.3694 34.8167 18.5846 34.8167H34.4152C34.6305 34.8167 34.8357 34.7255 34.9796 34.5656ZM34.9796 34.5656L34.8497 34.4484M34.9796 34.5656C34.9797 34.5656 34.9797 34.5655 34.9797 34.5655L34.8497 34.4484M34.8497 34.4484C34.7389 34.5714 34.581 34.6417 34.4152 34.6417H18.5846C18.419 34.6417 18.2611 34.5714 18.1502 34.4484L34.9968 33.9961C35.0141 34.1608 34.9607 34.3252 34.8497 34.4484ZM24.2275 18.6166C24.2275 17.3638 25.2471 16.3442 26.5001 16.3442C27.7529 16.3442 28.7725 17.3638 28.7725 18.6166V19.0813H24.2275V18.6166ZM32.2385 20.6005L33.5719 33.2976H19.4281L20.7615 20.6005H22.7083V21.7138C22.7083 22.1332 23.0485 22.4734 23.4679 22.4734C23.8874 22.4734 24.2275 22.1332 24.2275 21.7138V20.6005H28.7725V21.7138C28.7725 22.1332 29.1126 22.4734 29.5321 22.4734C29.9515 22.4734 30.2917 22.1332 30.2917 21.7138V20.6005H32.2385Z" fill="#37474F" stroke="#37474F" stroke-width="0.35" stroke-linejoin="round"/>
</svg>
